<svg width="12" height="20" viewBox="0 0 12 20" fill="none" xmlns="http://www.w3.org/2000/svg">
<path d="M7.66663 0C9.96779 0 11.8333 1.86548 11.8333 4.16667V14.1667C11.8333 17.3883 9.22163 20 5.99996 20C2.7783 20 0.166626 17.3883 0.166626 14.1667V7.5H1.83329V14.1667C1.83329 16.4678 3.69878 18.3333 5.99996 18.3333C8.30113 18.3333 10.1666 16.4678 10.1666 14.1667V4.16667C10.1666 2.78596 9.04738 1.66667 7.66663 1.66667C6.28588 1.66667 5.16663 2.78596 5.16663 4.16667V14.1667C5.16663 14.6269 5.53971 15 5.99996 15C6.46021 15 6.83329 14.6269 6.83329 14.1667V5H8.49996V14.1667C8.49996 15.5474 7.38071 16.6667 5.99996 16.6667C4.61921 16.6667 3.49996 15.5474 3.49996 14.1667V4.16667C3.49996 1.86548 5.36546 0 7.66663 0Z" fill="#6B6B6B"/>
</svg>
