<svg width="14" height="14" viewBox="0 0 14 14" fill="none" xmlns="http://www.w3.org/2000/svg">
<path d="M12.8158 10.6925C12.8158 10.9025 12.7691 11.1184 12.67 11.3284C12.5708 11.5384 12.4425 11.7367 12.2733 11.9234C11.9875 12.2384 11.6725 12.4659 11.3166 12.6117C10.9666 12.7575 10.5875 12.8334 10.1791 12.8334C9.58413 12.8334 8.94829 12.6934 8.27746 12.4075C7.60663 12.1217 6.93579 11.7367 6.27079 11.2525C5.59996 10.7625 4.96413 10.22 4.35746 9.61919C3.75663 9.01252 3.21413 8.37669 2.72996 7.71169C2.25163 7.04669 1.86663 6.38169 1.58663 5.72252C1.30663 5.05752 1.16663 4.42169 1.16663 3.81502C1.16663 3.41835 1.23663 3.03919 1.37663 2.68919C1.51663 2.33335 1.73829 2.00669 2.04746 1.71502C2.42079 1.34752 2.82913 1.16669 3.26079 1.16669C3.42413 1.16669 3.58746 1.20169 3.73329 1.27169C3.88496 1.34169 4.01913 1.44669 4.12413 1.59835L5.47746 3.50585C5.58246 3.65169 5.65829 3.78585 5.71079 3.91419C5.76329 4.03669 5.79246 4.15919 5.79246 4.27002C5.79246 4.41002 5.75163 4.55002 5.66996 4.68419C5.59413 4.81835 5.48329 4.95835 5.34329 5.09835L4.89996 5.55919C4.83579 5.62335 4.80663 5.69919 4.80663 5.79252C4.80663 5.83919 4.81246 5.88002 4.82413 5.92669C4.84163 5.97335 4.85913 6.00835 4.87079 6.04335C4.97579 6.23585 5.15663 6.48669 5.41329 6.79002C5.67579 7.09335 5.95579 7.40252 6.25913 7.71169C6.57413 8.02085 6.87746 8.30669 7.18663 8.56919C7.48996 8.82585 7.74079 9.00085 7.93913 9.10585C7.96829 9.11752 8.00329 9.13502 8.04413 9.15252C8.09079 9.17002 8.13746 9.17585 8.18996 9.17585C8.28913 9.17585 8.36496 9.14085 8.42913 9.07669L8.87246 8.63919C9.01829 8.49335 9.15829 8.38252 9.29246 8.31252C9.42663 8.23085 9.56079 8.19002 9.70663 8.19002C9.81746 8.19002 9.93413 8.21335 10.0625 8.26585C10.1908 8.31835 10.325 8.39419 10.4708 8.49335L12.4016 9.86419C12.5533 9.96919 12.6583 10.0917 12.7225 10.2375C12.7808 10.3834 12.8158 10.5292 12.8158 10.6925Z" stroke="#F3AE90" stroke-width="1.2" stroke-miterlimit="10"/>
</svg>
