<svg width="23" height="21" viewBox="0 0 23 21" fill="none" xmlns="http://www.w3.org/2000/svg">
<path d="M9.07617 19.377V12.6094C9.07617 12.401 9.13802 12.2383 9.26172 12.1211C9.39193 11.9974 9.55794 11.9355 9.75977 11.9355H13.6855C13.8939 11.9355 14.0599 11.9974 14.1836 12.1211C14.3073 12.2383 14.3691 12.401 14.3691 12.6094V19.377H9.07617ZM5.46289 20.2266C4.82487 20.2266 4.33008 20.054 3.97852 19.709C3.62695 19.3639 3.45117 18.8757 3.45117 18.2441V8.05859L4.79883 7.14062V17.9121C4.79883 18.2246 4.88021 18.4622 5.04297 18.625C5.20573 18.7943 5.4401 18.8789 5.74609 18.8789H17.6504C17.9629 18.8789 18.1973 18.7943 18.3535 18.625C18.5163 18.4622 18.5977 18.2246 18.5977 17.9121V7.13086L19.9453 8.05859V18.2441C19.9453 18.8757 19.7695 19.3639 19.418 19.709C19.0664 20.054 18.5716 20.2266 17.9336 20.2266H5.46289ZM0.853516 9.96289C0.853516 9.74154 0.947917 9.55599 1.13672 9.40625L10.668 1.39844C11.0065 1.11849 11.3646 0.978516 11.7422 0.978516C12.1198 0.978516 12.4714 1.11849 12.7969 1.39844L22.3281 9.40625C22.5039 9.55599 22.5918 9.7513 22.5918 9.99219C22.5918 10.1875 22.5234 10.3438 22.3867 10.4609C22.25 10.5781 22.084 10.6367 21.8887 10.6367C21.7715 10.6367 21.6641 10.6107 21.5664 10.5586C21.4688 10.5 21.3743 10.4349 21.2832 10.3633L12.084 2.61914C11.9668 2.52148 11.8464 2.47266 11.7227 2.47266C11.6055 2.47266 11.498 2.52148 11.4004 2.61914L2.16211 10.3633C2.08398 10.4349 1.99609 10.5 1.89844 10.5586C1.80078 10.6107 1.69336 10.6367 1.57617 10.6367C1.35482 10.6367 1.17904 10.5684 1.04883 10.4316C0.91862 10.2884 0.853516 10.1322 0.853516 9.96289ZM17.7676 5.98828V3.57617C17.7676 3.39388 17.8229 3.2474 17.9336 3.13672C18.0508 3.01953 18.2038 2.96094 18.3926 2.96094H19.3301C19.5189 2.96094 19.6686 3.01953 19.7793 3.13672C19.89 3.2474 19.9453 3.39388 19.9453 3.57617V7.83398L17.7676 5.98828Z" fill="#6B6B6B"/>
</svg>
