<svg width="21" height="20" viewBox="0 0 21 20" fill="none" xmlns="http://www.w3.org/2000/svg">
<path d="M3.82227 19.8711C3.4707 19.8711 3.24935 19.7572 3.1582 19.5293C3.07357 19.3079 3.11914 19.0833 3.29492 18.8555C3.41211 18.6992 3.57487 18.4974 3.7832 18.25C3.99154 18.0026 4.20638 17.7357 4.42773 17.4492C4.64909 17.1628 4.84115 16.8828 5.00391 16.6094C5.04297 16.5378 5.05273 16.4694 5.0332 16.4043C5.01367 16.3392 4.96484 16.2871 4.88672 16.248C3.91667 15.7337 3.07682 15.112 2.36719 14.3828C1.65755 13.6536 1.11068 12.8464 0.726562 11.9609C0.342448 11.069 0.150391 10.1348 0.150391 9.1582C0.150391 7.99935 0.417318 6.91862 0.951172 5.91602C1.49154 4.9069 2.23698 4.01823 3.1875 3.25C4.13802 2.48177 5.24154 1.88281 6.49805 1.45312C7.76107 1.01693 9.11198 0.798828 10.5508 0.798828C11.2148 0.798828 11.8626 0.850911 12.4941 0.955078C13.1257 1.05273 13.7344 1.19271 14.3203 1.375C14.0599 1.73307 13.8548 2.12695 13.7051 2.55664C13.5618 2.97982 13.4902 3.42904 13.4902 3.9043C13.4902 4.69857 13.6855 5.42448 14.0762 6.08203C14.4733 6.73307 14.9974 7.25391 15.6484 7.64453C16.2995 8.03516 17.0221 8.23047 17.8164 8.23047C18.3503 8.23047 18.8581 8.13607 19.3398 7.94727C19.8281 7.75846 20.2611 7.49805 20.6387 7.16602C20.8535 7.83008 20.9609 8.49414 20.9609 9.1582C20.9609 10.0762 20.7917 10.9518 20.4531 11.7852C20.1146 12.6185 19.6263 13.3835 18.9883 14.0801C18.3568 14.7767 17.5918 15.3822 16.6934 15.8965C15.7949 16.4108 14.7858 16.8079 13.666 17.0879C12.5462 17.3678 11.3385 17.5078 10.043 17.5078C9.95833 17.5078 9.8737 17.5046 9.78906 17.498C9.70443 17.498 9.61979 17.4915 9.53516 17.4785C9.47005 17.4785 9.40169 17.4915 9.33008 17.5176C9.26497 17.5436 9.19336 17.5827 9.11523 17.6348C8.71159 17.9082 8.26237 18.1751 7.76758 18.4355C7.2793 18.7025 6.78125 18.9434 6.27344 19.1582C5.77214 19.3796 5.30339 19.5521 4.86719 19.6758C4.4375 19.806 4.08919 19.8711 3.82227 19.8711ZM17.8262 7.03906C17.2467 7.03906 16.7194 6.89909 16.2441 6.61914C15.7689 6.33268 15.388 5.95182 15.1016 5.47656C14.8216 5.0013 14.6816 4.47396 14.6816 3.89453C14.6816 3.32161 14.8216 2.79753 15.1016 2.32227C15.388 1.84701 15.7689 1.4694 16.2441 1.18945C16.7194 0.902995 17.2467 0.759766 17.8262 0.759766C18.3991 0.759766 18.9232 0.902995 19.3984 1.18945C19.8737 1.4694 20.2513 1.84701 20.5312 2.32227C20.8177 2.79753 20.9609 3.32161 20.9609 3.89453C20.9609 4.47396 20.8177 5.0013 20.5312 5.47656C20.2513 5.95182 19.8737 6.33268 19.3984 6.61914C18.9232 6.89909 18.3991 7.03906 17.8262 7.03906Z" fill="black"/>
</svg>
