<svg width="17" height="23" viewBox="0 0 17 23" fill="none" xmlns="http://www.w3.org/2000/svg">
<path d="M4.44727 10.3965C4.30404 10.3965 4.17708 10.3444 4.06641 10.2402C3.96224 10.1361 3.91016 10.0091 3.91016 9.85938C3.91016 9.71615 3.96224 9.59245 4.06641 9.48828C4.17708 9.38411 4.30404 9.33203 4.44727 9.33203H12.6797C12.8229 9.33203 12.9466 9.38411 13.0508 9.48828C13.1615 9.59245 13.2168 9.71615 13.2168 9.85938C13.2168 10.0091 13.1615 10.1361 13.0508 10.2402C12.9466 10.3444 12.8229 10.3965 12.6797 10.3965H4.44727ZM4.44727 13.6973C4.29753 13.6973 4.17057 13.6452 4.06641 13.541C3.96224 13.4303 3.91016 13.3001 3.91016 13.1504C3.91016 13.0072 3.96224 12.8867 4.06641 12.7891C4.17057 12.6849 4.29753 12.6328 4.44727 12.6328H12.6797C12.8294 12.6328 12.9564 12.6849 13.0605 12.7891C13.1647 12.8867 13.2168 13.0072 13.2168 13.1504C13.2168 13.3001 13.1647 13.4303 13.0605 13.541C12.9564 13.6452 12.8294 13.6973 12.6797 13.6973H4.44727ZM4.44727 17.1738C4.30404 17.1738 4.17708 17.1217 4.06641 17.0176C3.96224 16.9134 3.91016 16.7897 3.91016 16.6465C3.91016 16.4967 3.96224 16.3698 4.06641 16.2656C4.17057 16.1615 4.29753 16.1094 4.44727 16.1094H8.67578C8.81901 16.1094 8.94271 16.1615 9.04688 16.2656C9.15755 16.3698 9.21289 16.4967 9.21289 16.6465C9.21289 16.7897 9.15755 16.9134 9.04688 17.0176C8.94271 17.1217 8.81901 17.1738 8.67578 17.1738H4.44727ZM3.64648 22.9551C2.72201 22.9551 2.02539 22.7174 1.55664 22.2422C1.08789 21.7669 0.853516 21.0605 0.853516 20.123V6.03125C0.853516 5.10677 1.07812 4.4069 1.52734 3.93164C1.98307 3.44987 2.66016 3.20898 3.55859 3.20898H3.88086C3.87435 3.24154 3.87109 3.27734 3.87109 3.31641C3.87109 3.34896 3.87109 3.38151 3.87109 3.41406V4.17578C3.87109 4.32552 3.88411 4.45247 3.91016 4.55664H3.58789C3.13216 4.55664 2.78711 4.6901 2.55273 4.95703C2.32487 5.22396 2.21094 5.5918 2.21094 6.06055V20.0938C2.21094 20.582 2.33789 20.9531 2.5918 21.207C2.8457 21.4674 3.22005 21.5977 3.71484 21.5977H13.4121C13.9134 21.5977 14.291 21.4674 14.5449 21.207C14.7988 20.9531 14.9258 20.582 14.9258 20.0938V6.06055C14.9258 5.5918 14.8086 5.22396 14.5742 4.95703C14.3464 4.6901 14.0013 4.55664 13.5391 4.55664H13.2266C13.2461 4.45247 13.2559 4.32552 13.2559 4.17578V3.41406C13.2559 3.38151 13.2559 3.34896 13.2559 3.31641C13.2559 3.27734 13.2559 3.24154 13.2559 3.20898H13.5684C14.4668 3.20898 15.1406 3.44987 15.5898 3.93164C16.0456 4.4069 16.2734 5.10677 16.2734 6.03125V20.123C16.2734 21.0605 16.0391 21.7669 15.5703 22.2422C15.1081 22.7174 14.4115 22.9551 13.4805 22.9551H3.64648ZM5.72656 5.24023C5.46615 5.24023 5.26107 5.16536 5.11133 5.01562C4.9681 4.85938 4.89648 4.64779 4.89648 4.38086V3.41406C4.89648 3.14714 4.9681 2.93555 5.11133 2.7793C5.26107 2.62305 5.46615 2.54492 5.72656 2.54492H6.61523C6.64779 2.03711 6.84961 1.60417 7.2207 1.24609C7.59831 0.888021 8.04753 0.708984 8.56836 0.708984C9.08919 0.708984 9.53516 0.888021 9.90625 1.24609C10.2773 1.60417 10.4759 2.03711 10.502 2.54492H11.4004C11.6608 2.54492 11.8626 2.62305 12.0059 2.7793C12.1556 2.93555 12.2305 3.14714 12.2305 3.41406V4.38086C12.2305 4.64779 12.1556 4.85938 12.0059 5.01562C11.8626 5.16536 11.6608 5.24023 11.4004 5.24023H5.72656ZM8.56836 3.42383C8.78971 3.42383 8.97852 3.3457 9.13477 3.18945C9.29753 3.02669 9.37891 2.83464 9.37891 2.61328C9.37891 2.38542 9.29753 2.19336 9.13477 2.03711C8.97852 1.88086 8.78971 1.80273 8.56836 1.80273C8.34049 1.80273 8.14518 1.88086 7.98242 2.03711C7.82617 2.19336 7.74805 2.38542 7.74805 2.61328C7.74805 2.83464 7.82617 3.02669 7.98242 3.18945C8.14518 3.3457 8.34049 3.42383 8.56836 3.42383Z" fill="#6B6B6B"/>
</svg>
