<svg width="19" height="20" viewBox="0 0 19 20" fill="none" xmlns="http://www.w3.org/2000/svg">
<path d="M9.50586 19.6855C8.22331 19.6855 7.01888 19.4414 5.89258 18.9531C4.76628 18.4648 3.77344 17.791 2.91406 16.9316C2.05469 16.0723 1.3776 15.0794 0.882812 13.9531C0.394531 12.8203 0.150391 11.6126 0.150391 10.3301C0.150391 9.05404 0.394531 7.85286 0.882812 6.72656C1.37109 5.59375 2.04492 4.59766 2.9043 3.73828C3.77018 2.8724 4.76628 2.19531 5.89258 1.70703C7.01888 1.21875 8.22005 0.974609 9.49609 0.974609C10.7786 0.974609 11.9831 1.21875 13.1094 1.70703C14.2357 2.19531 15.2285 2.8724 16.0879 3.73828C16.9538 4.59766 17.6309 5.59375 18.1191 6.72656C18.6139 7.85286 18.8613 9.05404 18.8613 10.3301C18.8613 11.6126 18.6172 12.8203 18.1289 13.9531C17.6406 15.0794 16.9635 16.0723 16.0977 16.9316C15.2383 17.791 14.2454 18.4648 13.1191 18.9531C11.9928 19.4414 10.7884 19.6855 9.50586 19.6855ZM9.50586 18.2695C10.6061 18.2695 11.6348 18.0645 12.5918 17.6543C13.5553 17.2441 14.3984 16.6777 15.1211 15.9551C15.8503 15.2259 16.4167 14.3828 16.8203 13.4258C17.2305 12.4622 17.4355 11.4303 17.4355 10.3301C17.4355 9.23633 17.2305 8.21094 16.8203 7.25391C16.4167 6.29036 15.8503 5.44727 15.1211 4.72461C14.3984 3.99544 13.5553 3.42578 12.5918 3.01562C11.6348 2.60547 10.6029 2.40039 9.49609 2.40039C8.39583 2.40039 7.36719 2.60547 6.41016 3.01562C5.45312 3.42578 4.61328 3.99544 3.89062 4.72461C3.16797 5.44727 2.60156 6.29036 2.19141 7.25391C1.78125 8.21094 1.57617 9.23633 1.57617 10.3301C1.57617 11.4303 1.78125 12.4622 2.19141 13.4258C2.60156 14.3828 3.16797 15.2259 3.89062 15.9551C4.61328 16.6777 5.45312 17.2441 6.41016 17.6543C7.3737 18.0645 8.4056 18.2695 9.50586 18.2695ZM5.20898 11.6387C4.85091 11.6387 4.54167 11.5117 4.28125 11.2578C4.02734 10.9974 3.90039 10.6849 3.90039 10.3203C3.90039 9.96224 4.02734 9.65625 4.28125 9.40234C4.54167 9.14193 4.85091 9.01172 5.20898 9.01172C5.56706 9.01172 5.87305 9.14193 6.12695 9.40234C6.38737 9.65625 6.51758 9.96224 6.51758 10.3203C6.51758 10.6849 6.39062 10.9974 6.13672 11.2578C5.88281 11.5117 5.57357 11.6387 5.20898 11.6387ZM9.49609 11.6387C9.13151 11.6387 8.82227 11.5117 8.56836 11.2578C8.31445 10.9974 8.1875 10.6849 8.1875 10.3203C8.1875 9.96224 8.31445 9.65625 8.56836 9.40234C8.82227 9.14193 9.13151 9.01172 9.49609 9.01172C9.86068 9.01172 10.1699 9.14193 10.4238 9.40234C10.6777 9.65625 10.8047 9.96224 10.8047 10.3203C10.8047 10.6849 10.6777 10.9974 10.4238 11.2578C10.1699 11.5117 9.86068 11.6387 9.49609 11.6387ZM13.793 11.6387C13.4284 11.6387 13.1159 11.5117 12.8555 11.2578C12.6016 10.9974 12.4746 10.6849 12.4746 10.3203C12.4746 9.96224 12.6016 9.65625 12.8555 9.40234C13.1159 9.14193 13.4284 9.01172 13.793 9.01172C14.1445 9.01172 14.4473 9.14193 14.7012 9.40234C14.9616 9.65625 15.0918 9.96224 15.0918 10.3203C15.0918 10.6849 14.9616 10.9974 14.7012 11.2578C14.4473 11.5117 14.1445 11.6387 13.793 11.6387Z" fill="#6B6B6B"/>
</svg>
