<svg width="23" height="17" viewBox="0 0 23 17" fill="none" xmlns="http://www.w3.org/2000/svg">
<path d="M4.91602 13.0078C4.64258 13.0078 4.42122 12.9264 4.25195 12.7637C4.08919 12.6009 4.00781 12.3893 4.00781 12.1289V10.4199C4.00781 10.1595 4.08919 9.94792 4.25195 9.78516C4.42122 9.61589 4.64258 9.53125 4.91602 9.53125H7.17188C7.44531 9.53125 7.66341 9.61589 7.82617 9.78516C7.99544 9.94792 8.08008 10.1595 8.08008 10.4199V12.1289C8.08008 12.3893 7.99544 12.6009 7.82617 12.7637C7.66341 12.9264 7.44531 13.0078 7.17188 13.0078H4.91602ZM1.54688 6.17188V4.08203H21.7715V6.17188H1.54688ZM3.68555 16.1621C2.74154 16.1621 2.0319 15.9277 1.55664 15.459C1.08789 14.9967 0.853516 14.3001 0.853516 13.3691V3.33008C0.853516 2.39909 1.08789 1.70247 1.55664 1.24023C2.0319 0.771484 2.74154 0.537109 3.68555 0.537109H19.623C20.5671 0.537109 21.2734 0.771484 21.7422 1.24023C22.2109 1.70898 22.4453 2.4056 22.4453 3.33008V13.3691C22.4453 14.2936 22.2109 14.9902 21.7422 15.459C21.2734 15.9277 20.5671 16.1621 19.623 16.1621H3.68555ZM3.70508 14.8145H19.6035C20.0788 14.8145 20.4466 14.6875 20.707 14.4336C20.974 14.1797 21.1074 13.8021 21.1074 13.3008V3.39844C21.1074 2.89714 20.974 2.51953 20.707 2.26562C20.4466 2.01172 20.0788 1.88477 19.6035 1.88477H3.70508C3.22331 1.88477 2.85221 2.01172 2.5918 2.26562C2.33789 2.51953 2.21094 2.89714 2.21094 3.39844V13.3008C2.21094 13.8021 2.33789 14.1797 2.5918 14.4336C2.85221 14.6875 3.22331 14.8145 3.70508 14.8145Z" fill="#6B6B6B"/>
</svg>
