<svg width="24" height="24" viewBox="0 0 24 24" fill="none" xmlns="http://www.w3.org/2000/svg">
<path d="M11.965 0.333313C5.52501 0.333313 0.29834 5.55998 0.29834 12C0.29834 18.44 5.52501 23.6666 11.965 23.6666C18.405 23.6666 23.6317 18.44 23.6317 12C23.6317 5.55998 18.4167 0.333313 11.965 0.333313ZM10.5067 15.535C10.5067 16.095 10.2733 16.3166 9.67834 16.3166H8.16167C7.56667 16.3166 7.33334 16.095 7.33334 15.535V8.46498C7.33334 7.90498 7.56667 7.68331 8.16167 7.68331H9.66667C10.2617 7.68331 10.495 7.90498 10.495 8.46498V15.535H10.5067ZM16.6667 15.535C16.6667 16.095 16.4333 16.3166 15.8383 16.3166H14.3333C13.7383 16.3166 13.505 16.095 13.505 15.535V8.46498C13.505 7.90498 13.7383 7.68331 14.3333 7.68331H15.8383C16.4333 7.68331 16.6667 7.90498 16.6667 8.46498V15.535Z" fill="#5AB277"/>
</svg>
