<svg width="24" height="25" viewBox="0 0 24 25" fill="none" xmlns="http://www.w3.org/2000/svg">
<path d="M18.4216 19.472L18.1028 19.7651C18.0487 19.8075 17.9971 19.8531 17.973 19.8745C17.9665 19.8802 17.962 19.8842 17.9599 19.8859C17.7949 20.0234 17.6174 20.1545 17.4233 20.2904L17.4233 20.2904L17.4194 20.2931C17.3714 20.3274 17.3432 20.3487 17.3232 20.3639C17.2974 20.3834 17.2852 20.3926 17.2619 20.4059L17.2495 20.413L17.2375 20.4208C17.1137 20.5013 16.9983 20.5685 16.872 20.6421C16.8044 20.6815 16.7337 20.7228 16.6569 20.7688C16.6219 20.7889 16.5853 20.8119 16.5586 20.8286C16.5517 20.8329 16.5454 20.8368 16.5401 20.8402C16.507 20.8607 16.4852 20.8734 16.4664 20.8828L16.4663 20.8827L16.458 20.8871C16.259 20.9913 16.0607 21.0857 15.863 21.1704L15.8495 21.1762L15.8364 21.1828C15.7517 21.2252 15.6955 21.2527 15.6444 21.2718L15.6336 21.2759L15.623 21.2804C15.499 21.3336 15.38 21.3743 15.2437 21.421C15.1722 21.4455 15.0958 21.4716 15.0115 21.502C14.9134 21.5284 14.8213 21.563 14.7533 21.5885L14.7503 21.5896C14.6084 21.6386 14.4656 21.6724 14.2982 21.712C14.2368 21.7265 14.1721 21.7418 14.103 21.7589C14.0397 21.7692 13.9862 21.7839 13.9555 21.7924L13.9533 21.793C13.916 21.8033 13.908 21.8051 13.908 21.8052L13.8922 21.8075L13.8752 21.8111C13.6175 21.8663 13.3562 21.9039 13.0785 21.9327L13.0432 21.9363L13.0087 21.9449L12.9881 21.95H12.9873L12.9647 21.9521C12.6452 21.9811 12.3209 22 12 22C11.6916 22 11.3798 21.9825 11.0623 21.9553C11.0226 21.946 10.9616 21.934 10.8938 21.9308C10.6227 21.9023 10.367 21.8651 10.1148 21.8111L10.0935 21.8066L10.072 21.8039C10.0356 21.7993 10.0008 21.7902 9.92736 21.7692L9.91935 21.7669L9.91127 21.7649C9.66977 21.7046 9.43915 21.6468 9.21 21.58L9.20068 21.5773L9.19127 21.5749C9.14374 21.563 9.09075 21.5438 9.00557 21.5118L8.99369 21.5074L8.9816 21.5035C8.77472 21.4377 8.5673 21.3623 8.35932 21.2772L8.35248 21.2744L8.34557 21.2718C8.29451 21.2527 8.23834 21.2252 8.15361 21.1828L8.13676 21.1744L8.11932 21.1672C7.91764 21.0847 7.72618 20.9936 7.54469 20.8939C7.51604 20.8775 7.48431 20.8585 7.44724 20.8363L7.44509 20.835C7.40912 20.8134 7.36775 20.7886 7.32807 20.7659L7.32012 20.7613L7.312 20.7571C7.12033 20.6567 6.9385 20.5476 6.76632 20.4301C6.72988 20.4041 6.6962 20.3808 6.66544 20.3595L6.66461 20.3589C6.6328 20.3369 6.604 20.3169 6.5735 20.2952C6.52557 20.2599 6.47907 20.226 6.43382 20.1931C6.28797 20.0868 6.15519 19.9901 6.03009 19.8859L6.00958 19.8688L5.98735 19.854C5.97173 19.8436 5.96651 19.8388 5.95281 19.8263C5.93907 19.8137 5.9168 19.7933 5.86696 19.7516C5.82045 19.7103 5.77083 19.6705 5.73 19.6381V19.6213L5.56937 19.4728C3.68599 17.7321 2.5 15.2529 2.5 12.5C2.5 7.26614 6.76614 3 12 3C17.2339 3 21.5 7.26614 21.5 12.5C21.5 15.2527 20.3142 17.7315 18.4216 19.472ZM16.6612 17.8851L16.6612 17.8851L16.6648 17.8875C17.0627 18.1497 17.3919 18.4537 17.6465 18.7784L17.9969 19.2255L18.3959 18.8212C20.0037 17.1923 21 14.9578 21 12.5C21 7.53386 16.9661 3.5 12 3.5C7.03386 3.5 3 7.53386 3 12.5C3 14.9578 3.99632 17.1923 5.60414 18.8212L5.99656 19.2188L6.34838 18.7849C6.61891 18.4512 6.94149 18.1469 7.33516 17.8875L7.33735 17.886C8.60356 17.0419 10.2941 16.605 12.0075 16.605C13.7211 16.605 15.4058 17.0419 16.6612 17.8851Z" fill="#6B6B6B" stroke="#6B6B6B"/>
<path d="M12 7.42999C9.93 7.42999 8.25 9.10999 8.25 11.18C8.25 13.21 9.84 14.86 11.95 14.92C11.98 14.92 12.02 14.92 12.04 14.92C12.06 14.92 12.09 14.92 12.11 14.92C12.12 14.92 12.13 14.92 12.13 14.92C14.15 14.85 15.74 13.21 15.75 11.18C15.75 9.10999 14.07 7.42999 12 7.42999Z" fill="#6B6B6B"/>
</svg>
